<svg width="176" height="181" viewBox="0 0 176 181" fill="none" xmlns="http://www.w3.org/2000/svg">
<rect x="13.887" y="14.3081" width="149" height="149" transform="rotate(-4.70687 13.887 14.3081)" fill="#A99DBD" stroke="#4F4F4F"/>
<rect x="27.949" y="6.2395" width="149" height="149" transform="rotate(10.2931 27.949 6.2395)" fill="#F2F2F2"/>
<rect x="27.949" y="6.2395" width="149" height="149" transform="rotate(10.2931 27.949 6.2395)" stroke="#4F4F4F"/>
<g clip-path="url(#clip0_916_26)">
<rect x="31.371" y="11.1805" width="70.5" height="13.2273" transform="rotate(10.2931 31.371 11.1805)" stroke="#4F4F4F" stroke-width="0.5"/>
<rect x="100.244" y="23.6884" width="70.5" height="13.2273" transform="rotate(10.2931 100.244 23.6884)" stroke="#4F4F4F" stroke-width="0.5"/>
<rect x="29.097" y="23.703" width="70.5" height="13.2273" transform="rotate(10.2931 29.097 23.703)" stroke="#4F4F4F" stroke-width="0.5"/>
<rect x="97.9706" y="36.2108" width="70.5" height="13.2273" transform="rotate(10.2931 97.9706 36.2108)" stroke="#4F4F4F" stroke-width="0.5"/>
<rect x="26.8226" y="36.2255" width="70.5" height="13.2273" transform="rotate(10.2931 26.8226 36.2255)" stroke="#4F4F4F" stroke-width="0.5"/>
<rect x="95.6962" y="48.7333" width="70.5" height="13.2273" transform="rotate(10.2931 95.6962 48.7333)" stroke="#4F4F4F" stroke-width="0.5"/>
<rect x="24.5487" y="48.7479" width="70.5" height="13.2273" transform="rotate(10.2931 24.5487 48.7479)" stroke="#4F4F4F" stroke-width="0.5"/>
<rect x="93.4222" y="61.2557" width="70.5" height="13.2273" transform="rotate(10.2931 93.4222 61.2557)" stroke="#4F4F4F" stroke-width="0.5"/>
<rect x="22.2743" y="61.2704" width="70.5" height="13.2273" transform="rotate(10.2931 22.2743 61.2704)" stroke="#4F4F4F" stroke-width="0.5"/>
<rect x="91.1478" y="73.7782" width="70.5" height="13.2273" transform="rotate(10.2931 91.1478 73.7782)" stroke="#4F4F4F" stroke-width="0.5"/>
<rect x="20.0004" y="73.7928" width="70.5" height="13.2273" transform="rotate(10.2931 20.0004 73.7928)" stroke="#4F4F4F" stroke-width="0.5"/>
<rect x="88.8739" y="86.3007" width="70.5" height="13.2273" transform="rotate(10.2931 88.8739 86.3007)" stroke="#4F4F4F" stroke-width="0.5"/>
<rect x="17.7259" y="86.3153" width="70.5" height="13.2273" transform="rotate(10.2931 17.7259 86.3153)" stroke="#4F4F4F" stroke-width="0.5"/>
<rect x="86.5995" y="98.8231" width="70.5" height="13.2273" transform="rotate(10.2931 86.5995 98.8231)" stroke="#4F4F4F" stroke-width="0.5"/>
<rect x="15.452" y="98.8378" width="70.5" height="13.2273" transform="rotate(10.2931 15.452 98.8378)" stroke="#4F4F4F" stroke-width="0.5"/>
<rect x="84.3255" y="111.346" width="70.5" height="13.2273" transform="rotate(10.2931 84.3255 111.346)" stroke="#4F4F4F" stroke-width="0.5"/>
<rect x="13.1776" y="111.36" width="70.5" height="13.2273" transform="rotate(10.2931 13.1776 111.36)" stroke="#4F4F4F" stroke-width="0.5"/>
<rect x="82.0511" y="123.868" width="70.5" height="13.2273" transform="rotate(10.2931 82.0511 123.868)" stroke="#4F4F4F" stroke-width="0.5"/>
<rect x="10.9037" y="123.882" width="70.5" height="13.2273" transform="rotate(10.2931 10.9037 123.882)" stroke="#4F4F4F" stroke-width="0.5"/>
<rect x="79.7772" y="136.39" width="70.5" height="13.2273" transform="rotate(10.2931 79.7772 136.39)" stroke="#4F4F4F" stroke-width="0.5"/>
<rect x="8.62926" y="136.405" width="70.5" height="13.2273" transform="rotate(10.2931 8.62926 136.405)" stroke="#4F4F4F" stroke-width="0.5"/>
<rect x="77.5028" y="148.913" width="70.5" height="13.2273" transform="rotate(10.2931 77.5028 148.913)" stroke="#4F4F4F" stroke-width="0.5"/>
</g>
<path d="M68.7107 16.6297L62.4686 34.2283C62.4686 34.2283 62.293 34.8142 62.1346 35.1701C61.1105 37.47 59.0795 38.932 57.1941 38.2632C55.3086 37.5945 54.6559 35.1802 55.3068 32.7483C55.4093 32.3653 55.6468 31.7897 55.6468 31.7897L64.2785 7.45395C64.2785 7.45395 64.4438 6.9208 64.5838 6.59318C65.8658 3.59195 68.7609 2.48383 71.2035 3.35017C73.646 4.21652 75.1648 6.89385 74.3002 10.0395C74.1899 10.4408 73.9434 11.0455 73.9434 11.0455L65.4929 34.8704" stroke="#4F4F4F"/>
<path d="M68.0715 15.3682L61.8294 32.9668C61.8294 32.9668 61.6539 33.5527 61.4954 33.9086C60.4713 36.2085 58.4403 37.6705 56.5549 37.0018C54.6695 36.333 54.0167 33.9187 54.6676 31.4869C54.7701 31.1039 55.0076 30.5282 55.0076 30.5282L63.6393 6.19247C63.6393 6.19247 63.8047 5.65932 63.9446 5.3317C65.2266 2.33047 68.1218 1.22235 70.5643 2.0887C73.0068 2.95504 74.5256 5.63238 73.6611 8.77803C73.5508 9.17935 73.3042 9.78403 73.3042 9.78403L64.8538 33.6089" stroke="#80BBDB"/>
<defs>
<clipPath id="clip0_916_26">
<rect width="140" height="140" fill="white" transform="translate(31.5723 11.4712) rotate(10.2931)"/>
</clipPath>
</defs>
</svg>
